<svg id="visual" viewBox="0 0 960 540" width="960" height="540" xmlns="http://www.w3.org/2000/svg" xmlns:xlink="http://www.w3.org/1999/xlink" version="1.1"><rect x="0" y="0" width="960" height="540" fill="#2f282f"></rect><path d="M0 348L32 345.7C64 343.3 128 338.7 192 340.2C256 341.7 320 349.3 384 357.8C448 366.3 512 375.7 576 368.7C640 361.7 704 338.3 768 342.3C832 346.3 896 377.7 928 393.3L960 409L960 541L928 541C896 541 832 541 768 541C704 541 640 541 576 541C512 541 448 541 384 541C320 541 256 541 192 541C128 541 64 541 32 541L0 541Z" fill="#095e37"></path><path d="M0 387L32 380.3C64 373.7 128 360.3 192 374C256 387.7 320 428.3 384 432C448 435.7 512 402.3 576 382.5C640 362.7 704 356.3 768 375.7C832 395 896 440 928 462.5L960 485L960 541L928 541C896 541 832 541 768 541C704 541 640 541 576 541C512 541 448 541 384 541C320 541 256 541 192 541C128 541 64 541 32 541L0 541Z" fill="#117c4a"></path><path d="M0 502L32 487.8C64 473.7 128 445.3 192 432C256 418.7 320 420.3 384 421C448 421.7 512 421.3 576 417.5C640 413.7 704 406.3 768 417.8C832 429.3 896 459.7 928 474.8L960 490L960 541L928 541C896 541 832 541 768 541C704 541 640 541 576 541C512 541 448 541 384 541C320 541 256 541 192 541C128 541 64 541 32 541L0 541Z" fill="#199a5e"></path><path d="M0 510L32 506C64 502 128 494 192 486.5C256 479 320 472 384 466.8C448 461.7 512 458.3 576 464.5C640 470.7 704 486.3 768 486.8C832 487.3 896 472.7 928 465.3L960 458L960 541L928 541C896 541 832 541 768 541C704 541 640 541 576 541C512 541 448 541 384 541C320 541 256 541 192 541C128 541 64 541 32 541L0 541Z" fill="#22ba73"></path></svg>