<svg id="visual" viewBox="0 0 960 540" width="960" height="540" xmlns="http://www.w3.org/2000/svg" xmlns:xlink="http://www.w3.org/1999/xlink" version="1.1"><rect x="0" y="0" width="960" height="540" fill="#2f282f"></rect><defs><linearGradient id="grad1_0" x1="43.8%" y1="0%" x2="100%" y2="100%"><stop offset="14.444444444444446%" stop-color="#2f282f" stop-opacity="1"></stop><stop offset="85.55555555555554%" stop-color="#2f282f" stop-opacity="1"></stop></linearGradient></defs><defs><linearGradient id="grad2_0" x1="0%" y1="0%" x2="56.3%" y2="100%"><stop offset="14.444444444444446%" stop-color="#2f282f" stop-opacity="1"></stop><stop offset="85.55555555555554%" stop-color="#2f282f" stop-opacity="1"></stop></linearGradient></defs><g transform="translate(960, 0)"><path d="M0 297C-29.9 286.2 -59.7 275.5 -85.3 262.5C-110.8 249.5 -132 234.4 -161.1 221.7C-190.1 209 -226.9 198.7 -240.3 174.6C-253.7 150.4 -243.6 112.4 -249.2 81C-254.7 49.6 -275.9 24.8 -297 0L0 0Z" fill="#22BA73"></path></g><g transform="translate(0, 540)"><path d="M0 -297C24.3 -272.8 48.6 -248.7 78.5 -241.6C108.3 -234.5 143.7 -244.5 171 -235.4C198.4 -226.4 217.7 -198.2 236.2 -171.6C254.8 -145.1 272.5 -120.1 282.5 -91.8C292.5 -63.4 294.7 -31.7 297 0L0 0Z" fill="#22BA73"></path></g></svg>